<svg viewBox="0 0 372 47" fill="none" xmlns="http://www.w3.org/2000/svg">
    <path d="M39.516 1.85V38H33.591V14.65C33.591 13.7167 33.641 12.7083 33.741 11.625L22.816 32.15C22.2994 33.1333 21.5077 33.625 20.441 33.625H19.491C18.4243 33.625 17.6327 33.1333 17.116 32.15L6.06602 11.55C6.11602 12.1 6.15768 12.6417 6.19102 13.175C6.22435 13.7083 6.24102 14.2 6.24102 14.65V38H0.316016V1.85H5.39102C5.69102 1.85 5.94935 1.85833 6.16602 1.875C6.38268 1.89166 6.57435 1.93333 6.74102 2C6.92435 2.06666 7.08268 2.175 7.21602 2.325C7.36602 2.475 7.50768 2.675 7.64102 2.925L18.466 23C18.7493 23.5333 19.0077 24.0833 19.241 24.65C19.491 25.2167 19.7327 25.8 19.966 26.4C20.1993 25.7833 20.441 25.1917 20.691 24.625C20.941 24.0417 21.2077 23.4833 21.491 22.95L32.166 2.925C32.2994 2.675 32.441 2.475 32.591 2.325C32.741 2.175 32.8994 2.06666 33.066 2C33.2494 1.93333 33.4494 1.89166 33.666 1.875C33.8827 1.85833 34.141 1.85 34.441 1.85H39.516ZM68.7566 32.45V38H47.5816V1.85H54.3066V32.45H68.7566ZM118.678 19.925C118.678 22.575 118.236 25.0333 117.353 27.3C116.486 29.55 115.253 31.5 113.653 33.15C112.053 34.8 110.128 36.0917 107.878 37.025C105.628 37.9417 103.128 38.4 100.378 38.4C97.6444 38.4 95.1527 37.9417 92.9027 37.025C90.6527 36.0917 88.7194 34.8 87.1027 33.15C85.5027 31.5 84.2611 29.55 83.3777 27.3C82.4944 25.0333 82.0527 22.575 82.0527 19.925C82.0527 17.275 82.4944 14.825 83.3777 12.575C84.2611 10.3083 85.5027 8.35 87.1027 6.7C88.7194 5.05 90.6527 3.76667 92.9027 2.85C95.1527 1.91667 97.6444 1.45 100.378 1.45C102.211 1.45 103.936 1.66667 105.553 2.1C107.169 2.51667 108.653 3.11667 110.003 3.9C111.353 4.66666 112.561 5.60833 113.628 6.725C114.711 7.825 115.628 9.05833 116.378 10.425C117.128 11.7917 117.694 13.275 118.078 14.875C118.478 16.475 118.678 18.1583 118.678 19.925ZM111.803 19.925C111.803 17.9417 111.536 16.1667 111.003 14.6C110.469 13.0167 109.711 11.675 108.728 10.575C107.744 9.475 106.544 8.63333 105.128 8.05C103.728 7.46667 102.144 7.175 100.378 7.175C98.6111 7.175 97.0194 7.46667 95.6027 8.05C94.2027 8.63333 93.0027 9.475 92.0027 10.575C91.0194 11.675 90.2611 13.0167 89.7277 14.6C89.1944 16.1667 88.9277 17.9417 88.9277 19.925C88.9277 21.9083 89.1944 23.6917 89.7277 25.275C90.2611 26.8417 91.0194 28.175 92.0027 29.275C93.0027 30.3583 94.2027 31.1917 95.6027 31.775C97.0194 32.3583 98.6111 32.65 100.378 32.65C102.144 32.65 103.728 32.3583 105.128 31.775C106.544 31.1917 107.744 30.3583 108.728 29.275C109.711 28.175 110.469 26.8417 111.003 25.275C111.536 23.6917 111.803 21.9083 111.803 19.925ZM129.344 31.35C130.044 32.2 130.802 32.8 131.619 33.15C132.452 33.5 133.352 33.675 134.319 33.675C135.252 33.675 136.094 33.5 136.844 33.15C137.594 32.8 138.227 32.2667 138.744 31.55C139.277 30.8333 139.686 29.9333 139.969 28.85C140.252 27.75 140.394 26.4583 140.394 24.975C140.394 23.475 140.269 22.2083 140.019 21.175C139.786 20.125 139.444 19.275 138.994 18.625C138.544 17.975 137.994 17.5 137.344 17.2C136.711 16.9 135.986 16.75 135.169 16.75C133.886 16.75 132.794 17.025 131.894 17.575C130.994 18.1083 130.144 18.8667 129.344 19.85V31.35ZM129.019 15.85C130.069 14.6667 131.261 13.7083 132.594 12.975C133.927 12.2417 135.494 11.875 137.294 11.875C138.694 11.875 139.969 12.1667 141.119 12.75C142.286 13.3333 143.286 14.1833 144.119 15.3C144.969 16.4 145.619 17.7667 146.069 19.4C146.536 21.0167 146.769 22.875 146.769 24.975C146.769 26.8917 146.511 28.6667 145.994 30.3C145.477 31.9333 144.736 33.35 143.769 34.55C142.819 35.75 141.661 36.6917 140.294 37.375C138.944 38.0417 137.427 38.375 135.744 38.375C134.311 38.375 133.086 38.1583 132.069 37.725C131.052 37.275 130.144 36.6583 129.344 35.875V46.375H123.169V12.35H126.944C127.744 12.35 128.269 12.725 128.519 13.475L129.019 15.85ZM167.237 17.35C167.07 17.6167 166.895 17.8083 166.712 17.925C166.529 18.025 166.295 18.075 166.012 18.075C165.712 18.075 165.387 17.9917 165.037 17.825C164.704 17.6583 164.312 17.475 163.862 17.275C163.412 17.0583 162.895 16.8667 162.312 16.7C161.745 16.5333 161.07 16.45 160.287 16.45C159.07 16.45 158.112 16.7083 157.412 17.225C156.729 17.7417 156.387 18.4167 156.387 19.25C156.387 19.8 156.562 20.2667 156.912 20.65C157.279 21.0167 157.754 21.3417 158.337 21.625C158.937 21.9083 159.612 22.1667 160.362 22.4C161.112 22.6167 161.87 22.8583 162.637 23.125C163.42 23.3917 164.187 23.7 164.937 24.05C165.687 24.3833 166.354 24.8167 166.937 25.35C167.537 25.8667 168.012 26.4917 168.362 27.225C168.729 27.9583 168.912 28.8417 168.912 29.875C168.912 31.1083 168.687 32.25 168.237 33.3C167.804 34.3333 167.154 35.2333 166.287 36C165.42 36.75 164.345 37.3417 163.062 37.775C161.795 38.1917 160.329 38.4 158.662 38.4C157.779 38.4 156.912 38.3167 156.062 38.15C155.229 38 154.42 37.7833 153.637 37.5C152.87 37.2167 152.154 36.8833 151.487 36.5C150.837 36.1167 150.262 35.7 149.762 35.25L151.187 32.9C151.37 32.6167 151.587 32.4 151.837 32.25C152.087 32.1 152.404 32.025 152.787 32.025C153.17 32.025 153.529 32.1333 153.862 32.35C154.212 32.5667 154.612 32.8 155.062 33.05C155.512 33.3 156.037 33.5333 156.637 33.75C157.254 33.9667 158.029 34.075 158.962 34.075C159.695 34.075 160.32 33.9917 160.837 33.825C161.37 33.6417 161.804 33.4083 162.137 33.125C162.487 32.8417 162.737 32.5167 162.887 32.15C163.054 31.7667 163.137 31.375 163.137 30.975C163.137 30.375 162.954 29.8833 162.587 29.5C162.237 29.1167 161.762 28.7833 161.162 28.5C160.579 28.2167 159.904 27.9667 159.137 27.75C158.387 27.5167 157.612 27.2667 156.812 27C156.029 26.7333 155.254 26.425 154.487 26.075C153.737 25.7083 153.062 25.25 152.462 24.7C151.879 24.15 151.404 23.475 151.037 22.675C150.687 21.875 150.512 20.9083 150.512 19.775C150.512 18.725 150.72 17.725 151.137 16.775C151.554 15.825 152.162 15 152.962 14.3C153.779 13.5833 154.787 13.0167 155.987 12.6C157.204 12.1667 158.604 11.95 160.187 11.95C161.954 11.95 163.562 12.2417 165.012 12.825C166.462 13.4083 167.67 14.175 168.637 15.125L167.237 17.35ZM198.443 20.025C199.676 20.025 200.751 19.875 201.668 19.575C202.585 19.2583 203.343 18.8167 203.943 18.25C204.56 17.6667 205.018 16.9667 205.318 16.15C205.618 15.3167 205.768 14.3917 205.768 13.375C205.768 12.4083 205.618 11.5333 205.318 10.75C205.018 9.96666 204.568 9.3 203.968 8.75C203.368 8.2 202.61 7.78333 201.693 7.5C200.776 7.2 199.693 7.05 198.443 7.05H193.418V20.025H198.443ZM198.443 1.85C200.86 1.85 202.951 2.13333 204.718 2.7C206.485 3.26667 207.943 4.05833 209.093 5.075C210.243 6.09167 211.093 7.30833 211.643 8.725C212.21 10.1417 212.493 11.6917 212.493 13.375C212.493 15.125 212.201 16.7333 211.618 18.2C211.035 19.65 210.16 20.9 208.993 21.95C207.826 23 206.36 23.8167 204.593 24.4C202.843 24.9833 200.793 25.275 198.443 25.275H193.418V38H186.693V1.85H198.443ZM222.827 0.849998V38H216.652V0.849998H222.827ZM242.53 27.05C240.746 27.1333 239.246 27.2917 238.03 27.525C236.813 27.7417 235.838 28.025 235.105 28.375C234.371 28.725 233.846 29.1333 233.53 29.6C233.213 30.0667 233.055 30.575 233.055 31.125C233.055 32.2083 233.371 32.9833 234.005 33.45C234.655 33.9167 235.496 34.15 236.53 34.15C237.796 34.15 238.888 33.925 239.805 33.475C240.738 33.0083 241.646 32.3083 242.53 31.375V27.05ZM228.38 15.925C231.33 13.225 234.88 11.875 239.03 11.875C240.53 11.875 241.871 12.125 243.055 12.625C244.238 13.1083 245.238 13.7917 246.055 14.675C246.871 15.5417 247.488 16.5833 247.905 17.8C248.338 19.0167 248.555 20.35 248.555 21.8V38H245.755C245.171 38 244.721 37.9167 244.405 37.75C244.088 37.5667 243.838 37.2083 243.655 36.675L243.105 34.825C242.455 35.4083 241.821 35.925 241.205 36.375C240.588 36.8083 239.946 37.175 239.28 37.475C238.613 37.775 237.896 38 237.13 38.15C236.38 38.3167 235.546 38.4 234.63 38.4C233.546 38.4 232.546 38.2583 231.63 37.975C230.713 37.675 229.921 37.2333 229.255 36.65C228.588 36.0667 228.071 35.3417 227.705 34.475C227.338 33.6083 227.155 32.6 227.155 31.45C227.155 30.8 227.263 30.1583 227.48 29.525C227.696 28.875 228.046 28.2583 228.53 27.675C229.03 27.0917 229.671 26.5417 230.455 26.025C231.238 25.5083 232.196 25.0583 233.33 24.675C234.48 24.2917 235.813 23.9833 237.33 23.75C238.846 23.5 240.58 23.35 242.53 23.3V21.8C242.53 20.0833 242.163 18.8167 241.43 18C240.696 17.1667 239.638 16.75 238.255 16.75C237.255 16.75 236.421 16.8667 235.755 17.1C235.105 17.3333 234.53 17.6 234.03 17.9C233.53 18.1833 233.071 18.4417 232.655 18.675C232.255 18.9083 231.805 19.025 231.305 19.025C230.871 19.025 230.505 18.9167 230.205 18.7C229.905 18.4667 229.663 18.2 229.48 17.9L228.38 15.925ZM273.004 38V16.975H261.829V30.875C261.829 31.675 262.02 32.3 262.404 32.75C262.804 33.2 263.345 33.425 264.029 33.425C264.412 33.425 264.729 33.3833 264.979 33.3C265.245 33.2 265.47 33.1 265.654 33C265.854 32.9 266.029 32.8083 266.179 32.725C266.329 32.625 266.479 32.575 266.629 32.575C266.812 32.575 266.962 32.625 267.079 32.725C267.195 32.8083 267.32 32.9417 267.454 33.125L269.304 36.125C268.404 36.875 267.37 37.4417 266.204 37.825C265.037 38.2083 263.829 38.4 262.579 38.4C260.345 38.4 258.629 37.775 257.429 36.525C256.245 35.2583 255.654 33.5167 255.654 31.3V16.975H253.029C252.695 16.975 252.412 16.8667 252.179 16.65C251.945 16.4333 251.829 16.1083 251.829 15.675V13.225L255.954 12.55L257.254 5.55C257.337 5.21666 257.495 4.95833 257.729 4.775C257.962 4.59167 258.262 4.5 258.629 4.5H261.829V12.575H273.004V10.675C273.004 9.20833 273.22 7.89166 273.654 6.725C274.104 5.55833 274.737 4.56666 275.554 3.75C276.387 2.93333 277.395 2.30833 278.579 1.875C279.762 1.44166 281.095 1.225 282.579 1.225C283.762 1.225 284.862 1.38333 285.879 1.7L285.754 4.8C285.737 5.03333 285.67 5.225 285.554 5.375C285.437 5.50833 285.279 5.61667 285.079 5.7C284.895 5.76666 284.679 5.81666 284.429 5.85C284.179 5.86667 283.912 5.875 283.629 5.875C282.895 5.875 282.237 5.95833 281.654 6.125C281.087 6.275 280.604 6.55 280.204 6.95C279.804 7.33333 279.495 7.85 279.279 8.5C279.079 9.13333 278.979 9.925 278.979 10.875V12.575H285.654V16.975H279.179V38H273.004ZM299.851 11.95C301.751 11.95 303.476 12.2583 305.026 12.875C306.593 13.4917 307.926 14.3667 309.026 15.5C310.143 16.6333 311.001 18.0167 311.601 19.65C312.201 21.2833 312.501 23.1083 312.501 25.125C312.501 27.1583 312.201 28.9917 311.601 30.625C311.001 32.2583 310.143 33.65 309.026 34.8C307.926 35.95 306.593 36.8333 305.026 37.45C303.476 38.0667 301.751 38.375 299.851 38.375C297.935 38.375 296.193 38.0667 294.626 37.45C293.06 36.8333 291.718 35.95 290.601 34.8C289.501 33.65 288.643 32.2583 288.026 30.625C287.426 28.9917 287.126 27.1583 287.126 25.125C287.126 23.1083 287.426 21.2833 288.026 19.65C288.643 18.0167 289.501 16.6333 290.601 15.5C291.718 14.3667 293.06 13.4917 294.626 12.875C296.193 12.2583 297.935 11.95 299.851 11.95ZM299.851 33.625C301.985 33.625 303.56 32.9083 304.576 31.475C305.61 30.0417 306.126 27.9417 306.126 25.175C306.126 22.4083 305.61 20.3 304.576 18.85C303.56 17.4 301.985 16.675 299.851 16.675C297.685 16.675 296.076 17.4083 295.026 18.875C293.993 20.325 293.476 22.425 293.476 25.175C293.476 27.925 293.993 30.025 295.026 31.475C296.076 32.9083 297.685 33.625 299.851 33.625ZM323.037 16.8C323.837 15.2667 324.787 14.0667 325.887 13.2C326.987 12.3167 328.287 11.875 329.787 11.875C330.97 11.875 331.92 12.1333 332.637 12.65L332.237 17.275C332.154 17.575 332.029 17.7917 331.862 17.925C331.712 18.0417 331.504 18.1 331.237 18.1C330.987 18.1 330.612 18.0583 330.112 17.975C329.629 17.8917 329.154 17.85 328.687 17.85C328.004 17.85 327.395 17.95 326.862 18.15C326.329 18.35 325.845 18.6417 325.412 19.025C324.995 19.3917 324.62 19.8417 324.287 20.375C323.97 20.9083 323.67 21.5167 323.387 22.2V38H317.212V12.35H320.837C321.47 12.35 321.912 12.4667 322.162 12.7C322.412 12.9167 322.579 13.3167 322.662 13.9L323.037 16.8ZM335.864 38V12.35H339.639C340.439 12.35 340.964 12.725 341.214 13.475L341.614 15.375C342.064 14.875 342.531 14.4167 343.014 14C343.514 13.5833 344.039 13.225 344.589 12.925C345.156 12.625 345.756 12.3917 346.389 12.225C347.039 12.0417 347.748 11.95 348.514 11.95C350.131 11.95 351.456 12.3917 352.489 13.275C353.539 14.1417 354.323 15.3 354.839 16.75C355.239 15.9 355.739 15.175 356.339 14.575C356.939 13.9583 357.598 13.4583 358.314 13.075C359.031 12.6917 359.789 12.4083 360.589 12.225C361.406 12.0417 362.223 11.95 363.039 11.95C364.456 11.95 365.714 12.1667 366.814 12.6C367.914 13.0333 368.839 13.6667 369.589 14.5C370.339 15.3333 370.906 16.35 371.289 17.55C371.689 18.75 371.889 20.125 371.889 21.675V38H365.714V21.675C365.714 20.0417 365.356 18.8167 364.639 18C363.923 17.1667 362.873 16.75 361.489 16.75C360.856 16.75 360.264 16.8583 359.714 17.075C359.181 17.2917 358.706 17.6083 358.289 18.025C357.889 18.425 357.573 18.9333 357.339 19.55C357.106 20.1667 356.989 20.875 356.989 21.675V38H350.789V21.675C350.789 19.9583 350.439 18.7083 349.739 17.925C349.056 17.1417 348.048 16.75 346.714 16.75C345.814 16.75 344.973 16.975 344.189 17.425C343.423 17.8583 342.706 18.4583 342.039 19.225V38H335.864Z" fill="black"/>
</svg>
